<svg width="102" height="21" viewBox="0 0 102 21" fill="none" xmlns="http://www.w3.org/2000/svg">
<path d="M6.44655 10.653C7.08789 10.653 7.64689 10.575 8.12355 10.419C8.60022 10.2543 8.99455 10.0247 9.30655 9.73C9.62722 9.42667 9.86555 9.06267 10.0216 8.638C10.1776 8.20467 10.2556 7.72367 10.2556 7.195C10.2556 6.69233 10.1776 6.23733 10.0216 5.83C9.86555 5.42267 9.63155 5.076 9.31955 4.79C9.00755 4.504 8.61322 4.28733 8.13655 4.14C7.65989 3.984 7.09655 3.906 6.44655 3.906H3.83355V10.653H6.44655ZM6.44655 1.202C7.70322 1.202 8.79089 1.34933 9.70955 1.644C10.6282 1.93867 11.3866 2.35033 11.9846 2.879C12.5826 3.40767 13.0246 4.04033 13.3106 4.777C13.6052 5.51367 13.7526 6.31967 13.7526 7.195C13.7526 8.105 13.6009 8.94133 13.2976 9.704C12.9942 10.458 12.5392 11.108 11.9326 11.654C11.3259 12.2 10.5632 12.6247 9.64455 12.928C8.73455 13.2313 7.66855 13.383 6.44655 13.383H3.83355V20H0.336553V1.202H6.44655ZM27.3152 10.146C27.9739 10.146 28.5459 10.0637 29.0312 9.899C29.5252 9.73433 29.9282 9.509 30.2402 9.223C30.5609 8.92833 30.7992 8.58167 30.9552 8.183C31.1112 7.78433 31.1892 7.34667 31.1892 6.87C31.1892 5.91667 30.8729 5.18433 30.2402 4.673C29.6162 4.16167 28.6585 3.906 27.3672 3.906H25.1312V10.146H27.3152ZM36.3112 20H33.1522C32.5542 20 32.1209 19.766 31.8522 19.298L27.9002 13.279C27.7529 13.0537 27.5882 12.8933 27.4062 12.798C27.2329 12.7027 26.9729 12.655 26.6262 12.655H25.1312V20H21.6342V1.202H27.3672C28.6412 1.202 29.7332 1.33633 30.6432 1.605C31.5619 1.865 32.3115 2.23333 32.8922 2.71C33.4815 3.18667 33.9149 3.75867 34.1922 4.426C34.4695 5.08467 34.6082 5.81267 34.6082 6.61C34.6082 7.24267 34.5129 7.84067 34.3222 8.404C34.1402 8.96733 33.8715 9.47867 33.5162 9.938C33.1695 10.3973 32.7362 10.8003 32.2162 11.147C31.7049 11.4937 31.1199 11.7667 30.4612 11.966C30.6865 12.096 30.8945 12.252 31.0852 12.434C31.2759 12.6073 31.4492 12.8153 31.6052 13.058L36.3112 20ZM47.0512 3.984V9.197H53.6292V11.888H47.0512V17.205H55.3972V20H43.5412V1.202H55.3972V3.984H47.0512ZM76.8263 4.075H71.1583V20H67.6613V4.075H61.9933V1.202H76.8263V4.075ZM101.778 10.601C101.778 11.979 101.549 13.2573 101.089 14.436C100.639 15.606 99.9974 16.62 99.1654 17.478C98.3334 18.336 97.3324 19.0077 96.1624 19.493C94.9924 19.9697 93.6924 20.208 92.2624 20.208C90.8411 20.208 89.5454 19.9697 88.3754 19.493C87.2054 19.0077 86.2001 18.336 85.3594 17.478C84.5274 16.62 83.8817 15.606 83.4224 14.436C82.9631 13.2573 82.7334 11.979 82.7334 10.601C82.7334 9.223 82.9631 7.949 83.4224 6.779C83.8817 5.60033 84.5274 4.582 85.3594 3.724C86.2001 2.866 87.2054 2.19867 88.3754 1.722C89.5454 1.23667 90.8411 0.994 92.2624 0.994C93.2157 0.994 94.1127 1.10667 94.9534 1.332C95.7941 1.54867 96.5654 1.86067 97.2674 2.268C97.9694 2.66667 98.5977 3.15633 99.1524 3.737C99.7157 4.309 100.192 4.95033 100.582 5.661C100.972 6.37167 101.267 7.143 101.466 7.975C101.674 8.807 101.778 9.68233 101.778 10.601ZM98.2034 10.601C98.2034 9.56967 98.0647 8.64667 97.7874 7.832C97.5101 7.00867 97.1157 6.311 96.6044 5.739C96.0931 5.167 95.4691 4.72933 94.7324 4.426C94.0044 4.12267 93.1811 3.971 92.2624 3.971C91.3437 3.971 90.5161 4.12267 89.7794 4.426C89.0514 4.72933 88.4274 5.167 87.9074 5.739C87.3961 6.311 87.0017 7.00867 86.7244 7.832C86.4471 8.64667 86.3084 9.56967 86.3084 10.601C86.3084 11.6323 86.4471 12.5597 86.7244 13.383C87.0017 14.1977 87.3961 14.891 87.9074 15.463C88.4274 16.0263 89.0514 16.4597 89.7794 16.763C90.5161 17.0663 91.3437 17.218 92.2624 17.218C93.1811 17.218 94.0044 17.0663 94.7324 16.763C95.4691 16.4597 96.0931 16.0263 96.6044 15.463C97.1157 14.891 97.5101 14.1977 97.7874 13.383C98.0647 12.5597 98.2034 11.6323 98.2034 10.601Z" fill="white"/>
</svg>
